/* XPM */
static char *_2572_fbcbf93ad48800cfd662c8731b7464bfede84ed6b15e68db4bbff092ee7fc16d[] = {
/* columns rows colors chars-per-pixel */
"64 64 177 2 ",
"   c #280177",
".  c #280277",
"X  c #2A0277",
"o  c #280178",
"O  c #290178",
"+  c #290278",
"@  c #2A0278",
"#  c #2A0378",
"$  c #2B0479",
"%  c #2C0579",
"&  c #2D067A",
"*  c #2D077A",
"=  c #2E087B",
"-  c #2F097B",
";  c #320C7D",
":  c #320D7D",
">  c #330E7E",
",  c #340F7F",
"<  c #35107F",
"1  c #361180",
"2  c #371280",
"3  c #381381",
"4  c #381481",
"5  c #391582",
"6  c #3A1682",
"7  c #3B1783",
"8  c #3C1883",
"9  c #3D1984",
"0  c #3D1A84",
"q  c #3E1B85",
"w  c #3F1C85",
"e  c #401D86",
"r  c #411E87",
"t  c #421F87",
"y  c #422088",
"u  c #432188",
"i  c #442289",
"p  c #452389",
"a  c #46248A",
"s  c #48268B",
"d  c #49288C",
"f  c #4B2A8D",
"g  c #4E2E8F",
"h  c #4F2F90",
"j  c #533492",
"k  c #543593",
"l  c #553693",
"z  c #5A3C97",
"x  c #5B3D97",
"c  c #5D3F98",
"v  c #5E4199",
"b  c #5F429A",
"n  c #60439A",
"m  c #61449B",
"M  c #62459B",
"N  c #63469C",
"B  c #63479C",
"V  c #65499D",
"C  c #664A9E",
"Z  c #684C9F",
"A  c #684DA0",
"S  c #6A4FA1",
"D  c #6C51A2",
"F  c #6D52A2",
"G  c #6F55A4",
"H  c #7056A4",
"J  c #7157A5",
"K  c #755CA8",
"L  c #775EA9",
"P  c #785FA9",
"I  c #7860AA",
"U  c #7961AA",
"Y  c #7A62AB",
"T  c #7B63AB",
"R  c #7C64AC",
"E  c #7D65AC",
"W  c #7E67AD",
"Q  c #7F68AE",
"!  c #816AAF",
"~  c #836DB1",
"^  c #846EB1",
"/  c #856FB2",
"(  c #8872B3",
")  c #8873B4",
"_  c #8974B4",
"`  c #8A75B5",
"'  c #8B76B5",
"]  c #8D78B7",
"[  c #8E79B7",
"{  c #907CB9",
"}  c #917DB9",
"|  c #937FBA",
" . c #9380BB",
".. c #9481BB",
"X. c #9582BC",
"o. c #9683BC",
"O. c #9886BE",
"+. c #9987BF",
"@. c #9A88BF",
"#. c #9E8CC1",
"$. c #9E8DC2",
"%. c #9F8EC2",
"&. c #A08FC3",
"*. c #A190C3",
"=. c #A291C4",
"-. c #A392C4",
";. c #A595C6",
":. c #A696C7",
">. c #A797C7",
",. c #A99AC9",
"<. c #AE9FCB",
"1. c #AFA1CC",
"2. c #B1A3CD",
"3. c #B3A5CF",
"4. c #B3A6CF",
"5. c #B4A7D0",
"6. c #B5A8D0",
"7. c #B9ACD2",
"8. c #B9ADD3",
"9. c #BAAED3",
"0. c #BBAFD4",
"q. c #BCB0D4",
"w. c #BEB2D5",
"e. c #BEB3D6",
"r. c #BFB4D7",
"t. c #C0B5D7",
"y. c #C1B6D8",
"u. c #C3B8D9",
"i. c #C3B9D9",
"p. c #C5BBDA",
"a. c #C8BEDC",
"s. c #C9BFDC",
"d. c #C9C0DD",
"f. c #CAC1DD",
"g. c #CBC2DE",
"h. c #CDC4DF",
"j. c #CEC5E0",
"k. c #CEC6E0",
"l. c #CFC7E1",
"z. c #D4CCE3",
"x. c #D5CEE4",
"c. c #D6CFE5",
"v. c #D7D0E5",
"b. c #D9D2E7",
"n. c #DAD4E8",
"m. c #DBD5E8",
"M. c #DDD7E9",
"N. c #DED8EA",
"B. c #DFDAEB",
"V. c #E0DBEB",
"C. c #E1DCEC",
"Z. c #E2DDEC",
"A. c #E3DEED",
"S. c #E4DFED",
"D. c #E4E0EE",
"F. c #E5E1EF",
"G. c #E6E2EF",
"H. c #E8E4F0",
"J. c #E9E5F1",
"K. c #E9E6F1",
"L. c #EDEAF3",
"P. c #EFEDF5",
"I. c #F0EEF5",
"U. c #F1EFF6",
"Y. c #F2F0F7",
"T. c #F3F1F7",
"R. c #F4F2F8",
"E. c #F6F5F9",
"W. c #F8F7FA",
"Q. c #F9F8FB",
"!. c #F9F9FB",
"~. c #FBFBFC",
"^. c #FCFCFD",
"/. c #FDFDFD",
"(. c #FEFEFE",
"). c white",
"_. c None",
/* pixels */
"_._._._._._._._._._._._._._._._._._._._._._._._._._._..   o O O O O o   . _._._._._._._._._._._._._._._._._._._._._._._._._._._.",
"_._._._._._._._._._._._._._._._._._._._._._.X                                     X _._._._._._._._._._._._._._._._._._._._._._.",
"_._._._._._._._._._._._._._._._._._._._.O                                             O _._._._._._._._._._._._._._._._._._._._.",
"_._._._._._._._._._._._._._._._._.@ O                                                     O @ _._._._._._._._._._._._._._._._._.",
"_._._._._._._._._._._._._._._._.o                                                             o _._._._._._._._._._._._._._._._.",
"_._._._._._._._._._._._._._.o                                                                     o _._._._._._._._._._._._._._.",
"_._._._._._._._._._._._._.                                                                            _._._._._._._._._._._._._.",
"_._._._._._._._._._._._.O                                                                             O _._._._._._._._._._._._.",
"_._._._._._._._._._.+                                                                                     + _._._._._._._._._._.",
"_._._._._._._._._.o                                                                                         o _._._._._._._._._.",
"_._._._._._._._.+                                                                                             + _._._._._._._._.",
"_._._._._._._._.                                                                                                _._._._._._._._.",
"_._._._._._._.O                                                 R y                                             O _._._._._._._.",
"_._._._._._.                                    q A -           ;.I.V   * z &                                       _._._._._._.",
"_._._._._.o                                 B 0.=.*             ;.).(. .+ 4 2.@.i                                   o _._._._._.",
"_._._._._.                            5 ' Z.T.G                 ;.).).).u.3 + | ~.u.S #                               _._._._._.",
"_._._._.o                         x 4.!.).x.a                   ;.).).).).D.j   m L.).H.| q                           o _._._._.",
"_._._.@                     , ~ m.).).).:.*                     ;.).).).).).Q.E   q h.).).~.9.N                         @ _._._.",
"_._._.O                   U Y.).).).R.H                         ;.).).).).).).).<.- $ #.).).).).z.s                     O _._._.",
"_._._.                  V (.).).).c.a                           ;.).).).).).).).).c.i   D Y.).).).D.-                     _._._.",
"_._.O                   p.).).).>.*                             ;.).).).).).).).).).U.Z   p x.).).).K                     O _._.",
"_._.                    S.).).5.                                ;.).).).).).).).).).).(.X.  = W.).).X.                      _._.",
"_.X                     b.).).t.                                ;.).).).).).).).).).).).P.  , ).).).}                       X _.",
"_.                      d.).).b.                                ;.).).).).).).).).).).).J.  h ).).).)                         _.",
"_.                      8.).).U.                                ;.).).).).).).).).).).).C.  S ).).).W                         _.",
"_.                      ,.).).).;                               ;.).).).).).).).).).).).i.  ^ ).).).A                         _.",
"_.                      +.).).).g                               ;.).).).).).).).).).).).%.  *.).).).g                         _.",
".                       T ).).).E                               ;.).).).).).).).).).).).I   k.).).(.>                         . ",
"                        f ).).).<.                              ;.).).).).).).).).).).).e = !.).).n.                            ",
"o                         I.).).N.                              ;.).).).).).).).).).).v.  x ).).).:.                          o ",
"O                         y.).).(.2                             ;.).).).).).).).).).).o.  ] ).).).J                           O ",
"O                         { ).).).L                             ;.).).).).).).).).).(.a   a.).).).9                           O ",
"O                         k ).).).p.                            ;.).).).).).).).).).u.  r (.).).B.                            O ",
"O                           b.).)./.0                           ;.).).).).).).).).).A   { ).).).O.                            O ",
"o                           / ).).).`                           ;.).).).).).).).).v.+   V.).).^.r                             o ",
"                            3 !.).).D.*                         ;.).).).).).).).).n   C ).).).9.                                ",
".                             6.).).).(                         ;.).).).).).).).r.  $ M.).).).b                               . ",
"_.                            f ~.).).P.<                       ;.).).).).).).R.a   ^ ).).).n.                                _.",
"_.                              ;.).).).$.                      ;.).).).).).).G   7 I.).).).M                                 _.",
"_.                              4 Y.).)./.N                     ;.).).).).).-.  $ g.).).).5.                                  _.",
"_.                                _ ).).).L.0                   ;.).).).).w.%   =.).).).Y.8                                   _.",
"_.X                               # s.).).).f.&                 ;.).).).q.&   T ).).).).!                                   X _.",
"_._.                                7 K.).).).e.&               ;.).).7.%   L /.).).).3.                                    _._.",
"_._.O                                 x ~.).).).w.&             ;.^.[     K /.).).).l.=                                   O _._.",
"_._._.                                  Q (.).).).p.6           { c     { /.).).).F.7                                     _._._.",
"_._._.O                                   W (.).).).K.v             : 9.).).).).G.d                                     O _._._.",
"_._._.@                                     U /.).).)./.$.2       v B.).).).).n.w                                       @ _._._.",
"_._._._.o                                     F Y.).).).).T.} u 1.).).).).).h.1                                       o _._._._.",
"_._._._._.                                      t j.).).).).).).).).).).~...$                                         _._._._._.",
"_._._._._.o                                       $ | E.).).).).).).).M.l                                           o _._._._._.",
"_._._._._._.                                          7 &.W.).).).A.Y $                                             _._._._._._.",
"_._._._._._._.O                                           9 P [ C $                                             O _._._._._._._.",
"_._._._._._._._.                                                                                                _._._._._._._._.",
"_._._._._._._._.+                                                                                             + _._._._._._._._.",
"_._._._._._._._._.o                                                                                         o _._._._._._._._._.",
"_._._._._._._._._._.+                                                                                     + _._._._._._._._._._.",
"_._._._._._._._._._._._.O                                                                             O _._._._._._._._._._._._.",
"_._._._._._._._._._._._._.                                                                            _._._._._._._._._._._._._.",
"_._._._._._._._._._._._._._.o                                                                     o _._._._._._._._._._._._._._.",
"_._._._._._._._._._._._._._._._.o                                                             o _._._._._._._._._._._._._._._._.",
"_._._._._._._._._._._._._._._._._.@ O                                                     O @ _._._._._._._._._._._._._._._._._.",
"_._._._._._._._._._._._._._._._._._._._.O                                             O _._._._._._._._._._._._._._._._._._._._.",
"_._._._._._._._._._._._._._._._._._._._._._.X                                     X _._._._._._._._._._._._._._._._._._._._._._.",
"_._._._._._._._._._._._._._._._._._._._._._._._._._._..   o O O O O o   . _._._._._._._._._._._._._._._._._._._._._._._._._._._."
};
