/* XPM */
static char *_002_19627d473fc93650552eb13401487528a407bef9ebce50f6d2d10da8cbd74d1c[] = {
/* columns rows colors chars-per-pixel */
"32 32 104 2 ",
"   c #280177",
".  c #290177",
"X  c #290277",
"o  c #280178",
"O  c #290178",
"+  c #290278",
"@  c #2B0479",
"#  c #2D077A",
"$  c #2F097B",
"%  c #310B7C",
"&  c #320D7D",
"*  c #330E7E",
"=  c #340F7F",
"-  c #35107F",
";  c #361180",
":  c #381381",
">  c #3A1682",
",  c #3B1783",
"<  c #3D1984",
"1  c #3E1B85",
"2  c #3F1C85",
"3  c #421F87",
"4  c #452389",
"5  c #46248A",
"6  c #48278B",
"7  c #4A298C",
"8  c #4B2A8D",
"9  c #4C2B8D",
"0  c #4D2C8E",
"q  c #503090",
"w  c #513191",
"e  c #523291",
"r  c #533492",
"t  c #563794",
"y  c #583995",
"u  c #583A95",
"i  c #5C3E98",
"p  c #5D4099",
"a  c #61449B",
"s  c #63479C",
"d  c #664A9E",
"f  c #694EA0",
"g  c #6B50A1",
"h  c #6D52A2",
"j  c #6E54A3",
"k  c #6F55A4",
"l  c #7157A5",
"z  c #7258A5",
"x  c #735AA7",
"c  c #7860AA",
"v  c #7E67AD",
"b  c #836CB0",
"n  c #836DB1",
"m  c #856FB2",
"M  c #8670B2",
"N  c #8A75B5",
"B  c #9380BB",
"V  c #9886BE",
"C  c #9A88BF",
"Z  c #9D8BC1",
"A  c #9F8EC2",
"S  c #A392C4",
"D  c #A393C5",
"F  c #A494C5",
"G  c #A696C7",
"H  c #A797C7",
"J  c #AEA0CC",
"K  c #B3A5CF",
"L  c #B3A6CF",
"P  c #B5A8D0",
"I  c #B6A9D1",
"U  c #B7AAD1",
"Y  c #BEB2D5",
"T  c #C4BADA",
"R  c #C9C0DD",
"E  c #CAC1DD",
"W  c #CBC2DE",
"Q  c #D1C9E2",
"!  c #D2CAE2",
"~  c #D4CDE4",
"^  c #D5CEE4",
"/  c #D9D2E7",
"(  c #DAD4E8",
")  c #DCD6E9",
"_  c #DDD7E9",
"`  c #E0DBEB",
"'  c #E1DCEC",
"]  c #E2DDEC",
"[  c #E3DEED",
"{  c #EAE7F2",
"}  c #EBE8F2",
"|  c #ECE9F3",
" . c #EDEAF3",
".. c #F0EEF5",
"X. c #F1EFF6",
"o. c #F3F1F7",
"O. c #F5F4F9",
"+. c #F7F6FA",
"@. c #F9F9FB",
"#. c #FAFAFC",
"$. c #FCFCFD",
"%. c #FDFDFD",
"&. c white",
"*. c None",
/* pixels */
"*.*.*.*.*.*.*.*.*.*.*.*.+ o O O O O o + *.*.*.*.*.*.*.*.*.*.*.*.",
"*.*.*.*.*.*.*.*.*.X o                     o X *.*.*.*.*.*.*.*.*.",
"*.*.*.*.*.*.*.+ .                             . + *.*.*.*.*.*.*.",
"*.*.*.*.*.*..                                     . *.*.*.*.*.*.",
"*.*.*.*.*.                                            *.*.*.*.*.",
"*.*.*.*.                                                *.*.*.*.",
"*.*.*..                 , +     B - =                   . *.*.*.",
"*.*.+             + d A 8       ! ` e m b *               + *.*.",
"*.*..         : N ] U &         ! &.O.k c  .G 0           . *.*.",
"*.X         f O.#.M             ! &.&.&.C r [ &.F           X *.",
"*.o         _ X.u               ! &.&.&.&.T 5 E &.6         o *.",
"*.          { [                 ! &.&.&.&.&.n Z &.t           *.",
"+           ( @.                ! &.&.&.&.&.j U &.4           + ",
"o           E &.2               ! &.&.&.&.&.u ~ &.-           o ",
"O           S &.h               ! &.&.&.&.+.> #.{             O ",
"O           x &.Z               ! &.&.&.&.I i &.U             O ",
"O           1 %.'               ! &.&.&.&.g A &.b               ",
"O             T &.y             ! &.&.&.[ % } @.>             O ",
"o             l &.Y             ! &.&.&.a v &.L               o ",
"+             + / &.p           ! &.&.J : } $.q               + ",
"*.              s &.| 3         ! &.( < W &.D                 *.",
"*.o               G &./ &       ! E ; K &.` =               o *.",
"*.X               # Q &.T :     N * H &.o.7                 X *.",
"*.*..               - ! &. .z   6 ^ &...y                 . *.*.",
"*.*.+                 & P &.&.R O.&.) 9                   + *.*.",
"*.*.*..                   z ' &.O.V $                   . *.*.*.",
"*.*.*.*.                    @ w -                       *.*.*.*.",
"*.*.*.*.*.                                            *.*.*.*.*.",
"*.*.*.*.*.*..                                     . *.*.*.*.*.*.",
"*.*.*.*.*.*.*.+ .                             . + *.*.*.*.*.*.*.",
"*.*.*.*.*.*.*.*.*.X o                     o X *.*.*.*.*.*.*.*.*.",
"*.*.*.*.*.*.*.*.*.*.*.*.+ o O O O O o + *.*.*.*.*.*.*.*.*.*.*.*."
};
