/* XPM */
static char *_718_c1c5ed9d91d32022d8b199898308b610dc0c8c0109273bf0f358f4d3417da4e9[] = {
/* columns rows colors chars-per-pixel */
"16 16 57 1 ",
"  c #280177",
". c #290277",
"X c #280178",
"o c #290178",
"O c #290279",
"+ c #2A0378",
"@ c #2B0479",
"# c #2D067A",
"$ c #2D077A",
"% c #320C7D",
"& c #320D7D",
"* c #381481",
"= c #391582",
"- c #3D1A84",
"; c #422088",
": c #432188",
"> c #4B2A8D",
", c #503090",
"< c #533492",
"1 c #5C3E98",
"2 c #684C9F",
"3 c #6D52A2",
"4 c #7157A5",
"5 c #765DA8",
"6 c #7961AA",
"7 c #7D65AC",
"8 c #7E66AD",
"9 c #846EB1",
"0 c #8E79B7",
"q c #8E7AB8",
"w c #907CB9",
"e c #917DB9",
"r c #9380BB",
"t c #9582BC",
"y c #9B89C0",
"u c #9E8DC2",
"i c #A797C7",
"p c #B3A6CF",
"a c #B4A7D0",
"s c #B6A9D1",
"d c #B9ACD2",
"f c #BDB1D5",
"g c #C9C0DD",
"h c #CFC7E1",
"j c #D5CEE4",
"k c #D7D0E5",
"l c #DCD6E9",
"z c #E4DFED",
"x c #E5E1EF",
"c c #E8E4F0",
"v c #E9E5F1",
"b c #E9E6F1",
"n c #EBE8F2",
"m c #F4F2F8",
"M c #F9F9FB",
"N c white",
"B c None",
/* pixels */
"BBBBB.oooo.BBBBB",
"BBBOX      XOBBB",
"BBX          XBB",
"BO   ,- 0<<   OB",
"BX 3f1  amrd7 XB",
".  n*   aNNqb& .",
"o  k;   aNNuM+ o",
"o  s2   aNNwl  o",
"o  8p   aNcuy  o",
"o  $x:  aN6v=  o",
".   5j% ptgq   .",
"BX   eh>1gi   XB",
"BO    4zx9    OB",
"BBX    @#    XBB",
"BBBOX      XOBBB",
"BBBBB.oooo.BBBBB"
};
